<svg xmlns="http://www.w3.org/2000/svg" xmlns:xlink="http://www.w3.org/1999/xlink" width="40" zoomAndPan="magnify" viewBox="0 0 30 30.000001" height="40" preserveAspectRatio="xMidYMid meet" version="1.0"><defs><filter x="0%" y="0%" width="100%" height="100%" id="3516974128"><feColorMatrix values="0 0 0 0 1 0 0 0 0 1 0 0 0 0 1 0 0 0 1 0" color-interpolation-filters="sRGB"/></filter><clipPath id="595245c14a"><path d="M 4.253906 6 L 18 6 L 18 25 L 4.253906 25 Z M 4.253906 6 " clip-rule="nonzero"/></clipPath><mask id="7eebb2185d"><g filter="url(#3516974128)"><rect x="-3" width="36" fill="#000000" y="-3" height="36.000001" fill-opacity="0.8"/></g></mask><clipPath id="ec9d76839e"><path d="M 0.253906 0.734375 L 13.4375 0.734375 L 13.4375 18.621094 L 0.253906 18.621094 Z M 0.253906 0.734375 " clip-rule="nonzero"/></clipPath><clipPath id="e660614f06"><rect x="0" width="14" y="0" height="19"/></clipPath><mask id="973f9a4e0c"><g filter="url(#3516974128)"><rect x="-3" width="36" fill="#000000" y="-3" height="36.000001" fill-opacity="0.8"/></g></mask><clipPath id="841597871f"><path d="M 0.84375 0 L 14.316406 0 L 14.316406 17.652344 L 0.84375 17.652344 Z M 0.84375 0 " clip-rule="nonzero"/></clipPath><clipPath id="94137d80fc"><rect x="0" width="15" y="0" height="18"/></clipPath><clipPath id="eae8fd850e"><path d="M 12 11 L 26 11 L 26 29.03125 L 12 29.03125 Z M 12 11 " clip-rule="nonzero"/></clipPath><mask id="86198429fd"><g filter="url(#3516974128)"><rect x="-3" width="36" fill="#000000" y="-3" height="36.000001" fill-opacity="0.8"/></g></mask><clipPath id="f8004dd70b"><path d="M 0.5625 0.378906 L 13.800781 0.378906 L 13.800781 18.03125 L 0.5625 18.03125 Z M 0.5625 0.378906 " clip-rule="nonzero"/></clipPath><clipPath id="2545d043ae"><rect x="0" width="14" y="0" height="19"/></clipPath><mask id="81b5980cd4"><g filter="url(#3516974128)"><rect x="-3" width="36" fill="#000000" y="-3" height="36.000001" fill-opacity="0.8"/></g></mask><clipPath id="7ab2e514a0"><path d="M 0.507812 1 L 5.851562 1 L 5.851562 7.953125 L 0.507812 7.953125 Z M 0.507812 1 " clip-rule="nonzero"/></clipPath><clipPath id="aee636a648"><rect x="0" width="6" y="0" height="8"/></clipPath><clipPath id="203c6cffb8"><path d="M 13.949219 15.441406 L 14.292969 15.441406 L 14.292969 15.714844 L 13.949219 15.714844 Z M 13.949219 15.441406 " clip-rule="nonzero"/></clipPath><clipPath id="5de96c5c80"><path d="M 14.273438 15.605469 C 13.621094 15.894531 14.203125 15.460938 14.203125 15.460938 " clip-rule="nonzero"/></clipPath><clipPath id="0e98963cc4"><path d="M 14.890625 13.84375 L 15.238281 13.84375 L 15.238281 14.117188 L 14.890625 14.117188 Z M 14.890625 13.84375 " clip-rule="nonzero"/></clipPath><clipPath id="9afe135393"><path d="M 15.21875 14.007812 C 14.566406 14.296875 15.144531 13.863281 15.144531 13.863281 " clip-rule="nonzero"/></clipPath><mask id="e16543ed5e"><g filter="url(#3516974128)"><rect x="-3" width="36" fill="#000000" y="-3" height="36.000001" fill-opacity="0.4"/></g></mask><clipPath id="ed655d6343"><path d="M 0.890625 0.84375 L 1.238281 0.84375 L 1.238281 1.117188 L 0.890625 1.117188 Z M 0.890625 0.84375 " clip-rule="nonzero"/></clipPath><clipPath id="6d58b4a589"><path d="M 1.21875 1.007812 C 0.566406 1.296875 1.144531 0.863281 1.144531 0.863281 " clip-rule="nonzero"/></clipPath><clipPath id="ca109fd089"><rect x="0" width="2" y="0" height="2"/></clipPath><clipPath id="167d273b19"><path d="M 13.25 12.113281 L 14.136719 12.113281 L 14.136719 12.609375 L 13.25 12.609375 Z M 13.25 12.113281 " clip-rule="nonzero"/></clipPath><clipPath id="9d501faabf"><path d="M 14.128906 12.265625 C 13.332031 13.066406 13.257812 12.121094 13.257812 12.121094 " clip-rule="nonzero"/></clipPath><mask id="f777ccce73"><g filter="url(#3516974128)"><rect x="-3" width="36" fill="#000000" y="-3" height="36.000001" fill-opacity="0.4"/></g></mask><clipPath id="2a2e6f6e4b"><path d="M 0.257812 0.113281 L 1.136719 0.113281 L 1.136719 0.609375 L 0.257812 0.609375 Z M 0.257812 0.113281 " clip-rule="nonzero"/></clipPath><clipPath id="f8a6aaec56"><path d="M 1.128906 0.265625 C 0.332031 1.066406 0.257812 0.121094 0.257812 0.121094 " clip-rule="nonzero"/></clipPath><clipPath id="6d6a236d39"><rect x="0" width="2" y="0" height="1"/></clipPath><clipPath id="1c3f18fab8"><path d="M 17.03125 26.128906 L 28.644531 26.128906 L 28.644531 28.304688 L 17.03125 28.304688 Z M 17.03125 26.128906 " clip-rule="nonzero"/></clipPath></defs><g clip-path="url(#595245c14a)"><g mask="url(#7eebb2185d)"><g transform="matrix(1, 0, 0, 1, 4, 6)"><g clip-path="url(#e660614f06)"><g clip-path="url(#ec9d76839e)"><path fill="#f4b0b0" d="M 13.40625 9.683594 L 0.253906 0.886719 L 0.253906 18.472656 Z M 13.40625 9.683594 " fill-opacity="1" fill-rule="nonzero"/></g></g></g></g></g><g mask="url(#973f9a4e0c)"><g transform="matrix(1, 0, 0, 1, 8, 0.000000000000005692)"><g clip-path="url(#94137d80fc)"><g clip-path="url(#841597871f)"><path fill="#ff204e" d="M 14.058594 8.796875 L 0.898438 0.00390625 L 0.898438 17.589844 Z M 14.058594 8.796875 " fill-opacity="1" fill-rule="nonzero"/></g></g></g></g><g clip-path="url(#eae8fd850e)"><g mask="url(#86198429fd)"><g transform="matrix(1, 0, 0, 1, 12, 11)"><g clip-path="url(#2545d043ae)"><g clip-path="url(#f8004dd70b)"><path fill="#5d0e41" d="M 13.742188 9.238281 L 0.582031 0.441406 L 0.582031 18.027344 Z M 13.742188 9.238281 " fill-opacity="1" fill-rule="nonzero"/></g></g></g></g></g><g mask="url(#81b5980cd4)"><g transform="matrix(1, 0, 0, 1, 16, 9)"><g clip-path="url(#aee636a648)"><g clip-path="url(#7ab2e514a0)"><path fill="#a0153e" d="M 5.71875 4.496094 L 0.609375 1.078125 L 0.609375 7.910156 Z M 5.71875 4.496094 " fill-opacity="1" fill-rule="nonzero"/></g></g></g></g><g clip-path="url(#203c6cffb8)"><g clip-path="url(#5de96c5c80)"><path fill="#5d0e41" d="M 10.71875 12.554688 L 17.253906 12.554688 L 17.253906 18.871094 L 10.71875 18.871094 Z M 10.71875 12.554688 " fill-opacity="1" fill-rule="nonzero"/></g></g><g clip-path="url(#0e98963cc4)"><g clip-path="url(#9afe135393)"><g mask="url(#e16543ed5e)"><g transform="matrix(1, 0, 0, 1, 14, 13)"><g clip-path="url(#ca109fd089)"><g clip-path="url(#ed655d6343)"><g clip-path="url(#6d58b4a589)"><rect x="-20.6" width="43.2" fill="#5d0e41" height="43.200001" y="-19.6" fill-opacity="1"/></g></g></g></g></g></g></g><g clip-path="url(#167d273b19)"><g clip-path="url(#9d501faabf)"><g mask="url(#f777ccce73)"><g transform="matrix(1, 0, 0, 1, 13, 12)"><g clip-path="url(#6d6a236d39)"><g clip-path="url(#2a2e6f6e4b)"><g clip-path="url(#f8a6aaec56)"><rect x="-19.6" width="43.2" fill="#5d0e41" height="43.200001" y="-18.6" fill-opacity="1"/></g></g></g></g></g></g></g><g clip-path="url(#1c3f18fab8)"><path fill="#ffffff" d="M 28.597656 28.207031 C 28.179688 28.023438 27.804688 27.75 27.507812 27.402344 C 27.488281 27.382812 27.46875 27.359375 27.453125 27.339844 C 27.527344 27.296875 27.601562 27.25 27.667969 27.199219 C 27.960938 26.988281 28.199219 26.710938 28.328125 26.371094 C 28.351562 26.304688 28.367188 26.226562 28.300781 26.179688 C 28.25 26.140625 28.171875 26.144531 28.109375 26.160156 C 28.03125 26.183594 27.960938 26.238281 27.894531 26.289062 C 27.8125 26.351562 27.734375 26.421875 27.664062 26.5 C 27.617188 26.554688 27.570312 26.613281 27.53125 26.671875 C 27.492188 26.457031 27.347656 26.261719 27.144531 26.171875 C 27.046875 26.128906 26.917969 26.128906 26.878906 26.246094 C 26.839844 26.351562 26.886719 26.46875 26.925781 26.566406 C 27.027344 26.832031 27.164062 27.082031 27.335938 27.308594 C 26.660156 27.660156 25.867188 27.65625 25.125 27.546875 C 24.664062 27.476562 24.210938 27.371094 23.753906 27.28125 C 23.3125 27.195312 22.871094 27.117188 22.425781 27.054688 C 21.542969 26.929688 20.648438 26.867188 19.761719 26.957031 C 18.910156 27.042969 18.035156 27.265625 17.304688 27.726562 C 17.21875 27.785156 17.136719 27.84375 17.054688 27.90625 C 17.042969 27.914062 17.058594 27.933594 17.070312 27.925781 C 17.4375 27.652344 17.847656 27.46875 18.285156 27.332031 C 18.726562 27.191406 19.1875 27.101562 19.648438 27.050781 C 20.578125 26.953125 21.519531 27.023438 22.441406 27.15625 C 22.90625 27.226562 23.371094 27.308594 23.832031 27.402344 C 24.304688 27.496094 24.777344 27.601562 25.257812 27.664062 C 25.71875 27.722656 26.195312 27.738281 26.652344 27.640625 C 26.90625 27.585938 27.15625 27.5 27.386719 27.375 C 27.515625 27.535156 27.664062 27.6875 27.824219 27.820312 C 28.050781 28.007812 28.300781 28.15625 28.570312 28.269531 C 28.605469 28.285156 28.632812 28.222656 28.597656 28.207031 Z M 27.121094 26.839844 C 27.066406 26.738281 27.019531 26.632812 26.976562 26.523438 C 26.949219 26.445312 26.878906 26.285156 26.972656 26.222656 C 27.035156 26.175781 27.132812 26.230469 27.1875 26.265625 C 27.242188 26.296875 27.285156 26.339844 27.328125 26.382812 C 27.417969 26.484375 27.472656 26.613281 27.488281 26.746094 C 27.488281 26.769531 27.519531 26.78125 27.535156 26.757812 C 27.648438 26.582031 27.800781 26.429688 27.972656 26.3125 C 28.039062 26.265625 28.109375 26.21875 28.195312 26.21875 C 28.222656 26.21875 28.257812 26.222656 28.273438 26.253906 C 28.292969 26.296875 28.25 26.371094 28.230469 26.410156 C 28.082031 26.734375 27.832031 27 27.53125 27.195312 C 27.488281 27.222656 27.445312 27.25 27.402344 27.273438 C 27.296875 27.136719 27.199219 26.992188 27.121094 26.839844 Z M 27.121094 26.839844 " fill-opacity="1" fill-rule="nonzero"/></g></svg>