<svg xmlns="http://www.w3.org/2000/svg" xmlns:xlink="http://www.w3.org/1999/xlink" width="68" zoomAndPan="magnify" viewBox="0 0 50.879997 36.750001" height="49" preserveAspectRatio="xMidYMid meet" version="1.0"><defs><clipPath id="55065241ec"><path d="M 7.1875 7 L 43.691406 7 L 43.691406 22 L 7.1875 22 Z M 7.1875 7 " clip-rule="nonzero"/></clipPath><clipPath id="fe5900734c"><path d="M 16 12 L 25 12 L 25 22 L 16 22 Z M 16 12 " clip-rule="nonzero"/></clipPath><clipPath id="a7246fb165"><path d="M 20.871094 12.230469 C 20.730469 12.152344 20.589844 12.152344 20.453125 12.230469 L 16.976562 14.25 C 16.835938 14.332031 16.769531 14.453125 16.769531 14.613281 L 16.769531 18.660156 C 16.769531 18.808594 16.851562 18.949219 16.976562 19.023438 L 20.453125 21.042969 C 20.589844 21.125 20.730469 21.125 20.871094 21.042969 L 24.347656 19.023438 C 24.476562 18.949219 24.554688 18.808594 24.554688 18.660156 L 24.554688 14.613281 C 24.554688 14.464844 24.46875 14.324219 24.347656 14.25 Z M 20.871094 12.230469 " clip-rule="nonzero"/></clipPath><linearGradient x1="37.092532" gradientTransform="matrix(0.431356, 0, 0, 0.431356, 7.189154, 7.033424)" y1="10.305452" x2="25.309084" gradientUnits="userSpaceOnUse" y2="34.194327" id="8fb8f5d1fa"><stop stop-opacity="1" stop-color="rgb(24.699402%, 52.89917%, 24.699402%)" offset="0"/><stop stop-opacity="1" stop-color="rgb(24.699402%, 53.019714%, 24.638367%)" offset="0.25"/><stop stop-opacity="1" stop-color="rgb(24.699402%, 53.260803%, 24.517822%)" offset="0.28125"/><stop stop-opacity="1" stop-color="rgb(24.699402%, 53.503418%, 24.395752%)" offset="0.299728"/><stop stop-opacity="1" stop-color="rgb(24.699402%, 53.625488%, 24.336243%)" offset="0.3125"/><stop stop-opacity="1" stop-color="rgb(24.699402%, 53.746033%, 24.275208%)" offset="0.34375"/><stop stop-opacity="1" stop-color="rgb(24.699402%, 53.990173%, 24.153137%)" offset="0.375"/><stop stop-opacity="1" stop-color="rgb(24.699402%, 54.232788%, 24.032593%)" offset="0.40625"/><stop stop-opacity="1" stop-color="rgb(24.699402%, 54.414368%, 23.94104%)" offset="0.421875"/><stop stop-opacity="1" stop-color="rgb(24.685669%, 54.627991%, 23.841858%)" offset="0.4375"/><stop stop-opacity="1" stop-color="rgb(24.656677%, 54.956055%, 23.696899%)" offset="0.453125"/><stop stop-opacity="1" stop-color="rgb(24.623108%, 55.307007%, 23.54126%)" offset="0.46875"/><stop stop-opacity="1" stop-color="rgb(24.591064%, 55.657959%, 23.387146%)" offset="0.484375"/><stop stop-opacity="1" stop-color="rgb(24.559021%, 56.008911%, 23.231506%)" offset="0.5"/><stop stop-opacity="1" stop-color="rgb(24.525452%, 56.358337%, 23.077393%)" offset="0.515625"/><stop stop-opacity="1" stop-color="rgb(24.493408%, 56.70929%, 22.921753%)" offset="0.53125"/><stop stop-opacity="1" stop-color="rgb(24.459839%, 57.060242%, 22.767639%)" offset="0.546875"/><stop stop-opacity="1" stop-color="rgb(24.427795%, 57.411194%, 22.612%)" offset="0.5625"/><stop stop-opacity="1" stop-color="rgb(24.395752%, 57.76062%, 22.457886%)" offset="0.578125"/><stop stop-opacity="1" stop-color="rgb(24.362183%, 58.111572%, 22.302246%)" offset="0.59375"/><stop stop-opacity="1" stop-color="rgb(24.330139%, 58.462524%, 22.148132%)" offset="0.609375"/><stop stop-opacity="1" stop-color="rgb(24.305725%, 58.731079%, 22.027588%)" offset="0.617187"/><stop stop-opacity="1" stop-color="rgb(24.28894%, 58.981323%, 21.90094%)" offset="0.625"/><stop stop-opacity="1" stop-color="rgb(24.272156%, 59.29718%, 21.733093%)" offset="0.632812"/><stop stop-opacity="1" stop-color="rgb(24.255371%, 59.613037%, 21.563721%)" offset="0.640625"/><stop stop-opacity="1" stop-color="rgb(24.238586%, 59.93042%, 21.395874%)" offset="0.648437"/><stop stop-opacity="1" stop-color="rgb(24.221802%, 60.246277%, 21.226501%)" offset="0.65625"/><stop stop-opacity="1" stop-color="rgb(24.205017%, 60.562134%, 21.058655%)" offset="0.664062"/><stop stop-opacity="1" stop-color="rgb(24.188232%, 60.877991%, 20.889282%)" offset="0.671875"/><stop stop-opacity="1" stop-color="rgb(24.171448%, 61.193848%, 20.721436%)" offset="0.679688"/><stop stop-opacity="1" stop-color="rgb(24.154663%, 61.509705%, 20.553589%)" offset="0.6875"/><stop stop-opacity="1" stop-color="rgb(24.136353%, 61.825562%, 20.384216%)" offset="0.695312"/><stop stop-opacity="1" stop-color="rgb(24.119568%, 62.141418%, 20.21637%)" offset="0.700272"/><stop stop-opacity="1" stop-color="rgb(24.111938%, 62.30011%, 20.132446%)" offset="0.703125"/><stop stop-opacity="1" stop-color="rgb(24.102783%, 62.457275%, 20.046997%)" offset="0.710938"/><stop stop-opacity="1" stop-color="rgb(24.085999%, 62.774658%, 19.87915%)" offset="0.71875"/><stop stop-opacity="1" stop-color="rgb(24.069214%, 63.090515%, 19.709778%)" offset="0.726562"/><stop stop-opacity="1" stop-color="rgb(24.052429%, 63.406372%, 19.541931%)" offset="0.734375"/><stop stop-opacity="1" stop-color="rgb(24.035645%, 63.722229%, 19.372559%)" offset="0.742187"/><stop stop-opacity="1" stop-color="rgb(24.01886%, 64.038086%, 19.204712%)" offset="0.75"/><stop stop-opacity="1" stop-color="rgb(24.002075%, 64.353943%, 19.035339%)" offset="0.757812"/><stop stop-opacity="1" stop-color="rgb(23.985291%, 64.6698%, 18.867493%)" offset="0.765625"/><stop stop-opacity="1" stop-color="rgb(23.968506%, 64.985657%, 18.69812%)" offset="0.773437"/><stop stop-opacity="1" stop-color="rgb(23.951721%, 65.301514%, 18.530273%)" offset="0.78125"/><stop stop-opacity="1" stop-color="rgb(23.934937%, 65.618896%, 18.362427%)" offset="0.789062"/><stop stop-opacity="1" stop-color="rgb(23.918152%, 65.934753%, 18.193054%)" offset="0.796875"/><stop stop-opacity="1" stop-color="rgb(23.904419%, 66.25824%, 18.017578%)" offset="0.804688"/><stop stop-opacity="1" stop-color="rgb(23.899841%, 66.604614%, 17.822266%)" offset="0.8125"/><stop stop-opacity="1" stop-color="rgb(23.899841%, 66.964722%, 17.61322%)" offset="0.820312"/><stop stop-opacity="1" stop-color="rgb(23.899841%, 67.324829%, 17.404175%)" offset="0.828125"/><stop stop-opacity="1" stop-color="rgb(23.899841%, 67.684937%, 17.196655%)" offset="0.835938"/><stop stop-opacity="1" stop-color="rgb(23.899841%, 68.031311%, 16.995239%)" offset="0.84375"/><stop stop-opacity="1" stop-color="rgb(23.899841%, 68.199158%, 16.899109%)" offset="0.875"/><stop stop-opacity="1" stop-color="rgb(23.899841%, 68.199158%, 16.899109%)" offset="1"/></linearGradient><clipPath id="eab3976988"><path d="M 16 12 L 25 12 L 25 22 L 16 22 Z M 16 12 " clip-rule="nonzero"/></clipPath><clipPath id="cae7f1a862"><path d="M 24.355469 14.25 L 20.863281 12.230469 C 20.828125 12.214844 20.792969 12.199219 20.757812 12.191406 L 16.84375 18.925781 C 16.878906 18.964844 16.917969 19 16.960938 19.023438 L 20.453125 21.042969 C 20.550781 21.101562 20.664062 21.117188 20.773438 21.085938 L 24.445312 14.324219 C 24.421875 14.292969 24.390625 14.269531 24.355469 14.25 Z M 24.355469 14.25 " clip-rule="nonzero"/></clipPath><linearGradient x1="20.622648" gradientTransform="matrix(0.431356, 0, 0, 0.431356, 7.189154, 7.033424)" y1="30.251501" x2="41.943669" gradientUnits="userSpaceOnUse" y2="14.595241" id="21d457a14b"><stop stop-opacity="1" stop-color="rgb(24.699402%, 52.89917%, 24.699402%)" offset="0"/><stop stop-opacity="1" stop-color="rgb(24.699402%, 52.89917%, 24.699402%)" offset="0.463063"/><stop stop-opacity="1" stop-color="rgb(24.699402%, 52.89917%, 24.699402%)" offset="0.5"/><stop stop-opacity="1" stop-color="rgb(24.699402%, 52.89917%, 24.699402%)" offset="0.536937"/><stop stop-opacity="1" stop-color="rgb(24.699402%, 52.89917%, 24.699402%)" offset="0.5625"/><stop stop-opacity="1" stop-color="rgb(24.772644%, 52.996826%, 24.719238%)" offset="0.578125"/><stop stop-opacity="1" stop-color="rgb(24.963379%, 53.244019%, 24.769592%)" offset="0.585938"/><stop stop-opacity="1" stop-color="rgb(25.193787%, 53.544617%, 24.830627%)" offset="0.59375"/><stop stop-opacity="1" stop-color="rgb(25.424194%, 53.846741%, 24.891663%)" offset="0.601562"/><stop stop-opacity="1" stop-color="rgb(25.654602%, 54.147339%, 24.954224%)" offset="0.609375"/><stop stop-opacity="1" stop-color="rgb(25.88501%, 54.449463%, 25.015259%)" offset="0.617187"/><stop stop-opacity="1" stop-color="rgb(26.115417%, 54.750061%, 25.076294%)" offset="0.625"/><stop stop-opacity="1" stop-color="rgb(26.345825%, 55.052185%, 25.138855%)" offset="0.632812"/><stop stop-opacity="1" stop-color="rgb(26.576233%, 55.352783%, 25.19989%)" offset="0.640625"/><stop stop-opacity="1" stop-color="rgb(26.806641%, 55.653381%, 25.260925%)" offset="0.648437"/><stop stop-opacity="1" stop-color="rgb(27.037048%, 55.955505%, 25.323486%)" offset="0.65625"/><stop stop-opacity="1" stop-color="rgb(27.268982%, 56.256104%, 25.384521%)" offset="0.664062"/><stop stop-opacity="1" stop-color="rgb(27.49939%, 56.558228%, 25.445557%)" offset="0.671875"/><stop stop-opacity="1" stop-color="rgb(27.729797%, 56.858826%, 25.506592%)" offset="0.679687"/><stop stop-opacity="1" stop-color="rgb(27.960205%, 57.16095%, 25.569153%)" offset="0.6875"/><stop stop-opacity="1" stop-color="rgb(28.190613%, 57.461548%, 25.630188%)" offset="0.695312"/><stop stop-opacity="1" stop-color="rgb(28.421021%, 57.763672%, 25.691223%)" offset="0.703125"/><stop stop-opacity="1" stop-color="rgb(28.651428%, 58.06427%, 25.753784%)" offset="0.710937"/><stop stop-opacity="1" stop-color="rgb(28.881836%, 58.364868%, 25.814819%)" offset="0.71875"/><stop stop-opacity="1" stop-color="rgb(29.112244%, 58.666992%, 25.875854%)" offset="0.726562"/><stop stop-opacity="1" stop-color="rgb(29.344177%, 58.96759%, 25.93689%)" offset="0.734375"/><stop stop-opacity="1" stop-color="rgb(29.574585%, 59.269714%, 25.999451%)" offset="0.742187"/><stop stop-opacity="1" stop-color="rgb(29.804993%, 59.570312%, 26.060486%)" offset="0.75"/><stop stop-opacity="1" stop-color="rgb(30.0354%, 59.872437%, 26.121521%)" offset="0.757812"/><stop stop-opacity="1" stop-color="rgb(30.265808%, 60.173035%, 26.184082%)" offset="0.765625"/><stop stop-opacity="1" stop-color="rgb(30.496216%, 60.475159%, 26.245117%)" offset="0.773437"/><stop stop-opacity="1" stop-color="rgb(30.726624%, 60.775757%, 26.306152%)" offset="0.78125"/><stop stop-opacity="1" stop-color="rgb(30.957031%, 61.076355%, 26.368713%)" offset="0.789062"/><stop stop-opacity="1" stop-color="rgb(31.187439%, 61.378479%, 26.429749%)" offset="0.796875"/><stop stop-opacity="1" stop-color="rgb(31.417847%, 61.679077%, 26.490784%)" offset="0.804687"/><stop stop-opacity="1" stop-color="rgb(31.64978%, 61.981201%, 26.551819%)" offset="0.8125"/><stop stop-opacity="1" stop-color="rgb(31.880188%, 62.281799%, 26.61438%)" offset="0.820312"/><stop stop-opacity="1" stop-color="rgb(32.107544%, 62.579346%, 26.673889%)" offset="0.828125"/><stop stop-opacity="1" stop-color="rgb(32.312012%, 62.844849%, 26.728821%)" offset="0.835937"/><stop stop-opacity="1" stop-color="rgb(32.495117%, 63.082886%, 26.779175%)" offset="0.84375"/><stop stop-opacity="1" stop-color="rgb(32.676697%, 63.320923%, 26.828003%)" offset="0.851562"/><stop stop-opacity="1" stop-color="rgb(32.859802%, 63.557434%, 26.878357%)" offset="0.859375"/><stop stop-opacity="1" stop-color="rgb(33.042908%, 63.795471%, 26.927185%)" offset="0.867187"/><stop stop-opacity="1" stop-color="rgb(33.224487%, 64.033508%, 26.977539%)" offset="0.875"/><stop stop-opacity="1" stop-color="rgb(33.407593%, 64.27002%, 27.026367%)" offset="0.882812"/><stop stop-opacity="1" stop-color="rgb(33.590698%, 64.508057%, 27.076721%)" offset="0.890625"/><stop stop-opacity="1" stop-color="rgb(33.773804%, 64.744568%, 27.125549%)" offset="0.898437"/><stop stop-opacity="1" stop-color="rgb(33.955383%, 64.982605%, 27.175903%)" offset="0.90625"/><stop stop-opacity="1" stop-color="rgb(34.138489%, 65.220642%, 27.224731%)" offset="0.914062"/><stop stop-opacity="1" stop-color="rgb(34.321594%, 65.457153%, 27.275085%)" offset="0.921875"/><stop stop-opacity="1" stop-color="rgb(34.503174%, 65.69519%, 27.323914%)" offset="0.929687"/><stop stop-opacity="1" stop-color="rgb(34.686279%, 65.933228%, 27.374268%)" offset="0.9375"/><stop stop-opacity="1" stop-color="rgb(34.869385%, 66.169739%, 27.423096%)" offset="0.945312"/><stop stop-opacity="1" stop-color="rgb(35.05249%, 66.407776%, 27.47345%)" offset="0.953125"/><stop stop-opacity="1" stop-color="rgb(35.23407%, 66.644287%, 27.522278%)" offset="0.960938"/><stop stop-opacity="1" stop-color="rgb(35.417175%, 66.882324%, 27.572632%)" offset="0.96875"/><stop stop-opacity="1" stop-color="rgb(35.600281%, 67.120361%, 27.62146%)" offset="0.976562"/><stop stop-opacity="1" stop-color="rgb(35.78186%, 67.356873%, 27.671814%)" offset="0.984375"/><stop stop-opacity="1" stop-color="rgb(35.964966%, 67.59491%, 27.720642%)" offset="0.992187"/><stop stop-opacity="1" stop-color="rgb(36.148071%, 67.832947%, 27.770996%)" offset="1"/></linearGradient><clipPath id="9e54e7923b"><path d="M 16 12 L 25 12 L 25 22 L 16 22 Z M 16 12 " clip-rule="nonzero"/></clipPath><clipPath id="7a2e91dab1"><path d="M 24.355469 19.023438 C 24.453125 18.964844 24.527344 18.867188 24.5625 18.757812 L 20.738281 12.183594 C 20.640625 12.164062 20.535156 12.171875 20.441406 12.230469 L 16.976562 14.242188 L 20.714844 21.101562 C 20.765625 21.09375 20.824219 21.074219 20.871094 21.050781 Z M 24.355469 19.023438 " clip-rule="nonzero"/></clipPath><linearGradient x1="22.690279" gradientTransform="matrix(0.431356, 0, 0, 0.431356, 7.189154, 7.033424)" y1="22.261" x2="40.2729" gradientUnits="userSpaceOnUse" y2="22.261" id="3b0ec9af68"><stop stop-opacity="1" stop-color="rgb(41.598511%, 74.899292%, 29.399109%)" offset="0"/><stop stop-opacity="1" stop-color="rgb(41.546631%, 74.832153%, 29.380798%)" offset="0.0625"/><stop stop-opacity="1" stop-color="rgb(41.403198%, 74.647522%, 29.333496%)" offset="0.078125"/><stop stop-opacity="1" stop-color="rgb(41.223145%, 74.412537%, 29.273987%)" offset="0.09375"/><stop stop-opacity="1" stop-color="rgb(41.041565%, 74.179077%, 29.212952%)" offset="0.109375"/><stop stop-opacity="1" stop-color="rgb(40.859985%, 73.944092%, 29.151917%)" offset="0.125"/><stop stop-opacity="1" stop-color="rgb(40.678406%, 73.710632%, 29.092407%)" offset="0.140625"/><stop stop-opacity="1" stop-color="rgb(40.496826%, 73.475647%, 29.031372%)" offset="0.15625"/><stop stop-opacity="1" stop-color="rgb(40.315247%, 73.240662%, 28.971863%)" offset="0.171875"/><stop stop-opacity="1" stop-color="rgb(40.133667%, 73.007202%, 28.910828%)" offset="0.1875"/><stop stop-opacity="1" stop-color="rgb(39.952087%, 72.772217%, 28.849792%)" offset="0.203125"/><stop stop-opacity="1" stop-color="rgb(39.770508%, 72.538757%, 28.790283%)" offset="0.21875"/><stop stop-opacity="1" stop-color="rgb(39.588928%, 72.303772%, 28.729248%)" offset="0.234375"/><stop stop-opacity="1" stop-color="rgb(39.408875%, 72.070312%, 28.668213%)" offset="0.25"/><stop stop-opacity="1" stop-color="rgb(39.201355%, 71.801758%, 28.6026%)" offset="0.265625"/><stop stop-opacity="1" stop-color="rgb(39.001465%, 71.542358%, 28.544617%)" offset="0.273438"/><stop stop-opacity="1" stop-color="rgb(38.835144%, 71.327209%, 28.500366%)" offset="0.28125"/><stop stop-opacity="1" stop-color="rgb(38.670349%, 71.110535%, 28.45459%)" offset="0.289062"/><stop stop-opacity="1" stop-color="rgb(38.504028%, 70.895386%, 28.410339%)" offset="0.296875"/><stop stop-opacity="1" stop-color="rgb(38.337708%, 70.680237%, 28.364563%)" offset="0.304688"/><stop stop-opacity="1" stop-color="rgb(38.171387%, 70.463562%, 28.320312%)" offset="0.3125"/><stop stop-opacity="1" stop-color="rgb(38.006592%, 70.248413%, 28.274536%)" offset="0.320313"/><stop stop-opacity="1" stop-color="rgb(37.840271%, 70.033264%, 28.230286%)" offset="0.328125"/><stop stop-opacity="1" stop-color="rgb(37.67395%, 69.816589%, 28.184509%)" offset="0.335938"/><stop stop-opacity="1" stop-color="rgb(37.509155%, 69.60144%, 28.140259%)" offset="0.34375"/><stop stop-opacity="1" stop-color="rgb(37.342834%, 69.386292%, 28.094482%)" offset="0.351563"/><stop stop-opacity="1" stop-color="rgb(37.176514%, 69.169617%, 28.050232%)" offset="0.359375"/><stop stop-opacity="1" stop-color="rgb(37.010193%, 68.954468%, 28.004456%)" offset="0.367188"/><stop stop-opacity="1" stop-color="rgb(36.845398%, 68.739319%, 27.960205%)" offset="0.375"/><stop stop-opacity="1" stop-color="rgb(36.679077%, 68.522644%, 27.914429%)" offset="0.382812"/><stop stop-opacity="1" stop-color="rgb(36.512756%, 68.307495%, 27.870178%)" offset="0.390625"/><stop stop-opacity="1" stop-color="rgb(36.347961%, 68.092346%, 27.824402%)" offset="0.398438"/><stop stop-opacity="1" stop-color="rgb(36.181641%, 67.875671%, 27.780151%)" offset="0.40625"/><stop stop-opacity="1" stop-color="rgb(36.01532%, 67.660522%, 27.734375%)" offset="0.414063"/><stop stop-opacity="1" stop-color="rgb(35.848999%, 67.445374%, 27.690125%)" offset="0.421875"/><stop stop-opacity="1" stop-color="rgb(35.684204%, 67.228699%, 27.644348%)" offset="0.429688"/><stop stop-opacity="1" stop-color="rgb(35.517883%, 67.01355%, 27.600098%)" offset="0.4375"/><stop stop-opacity="1" stop-color="rgb(35.351562%, 66.798401%, 27.554321%)" offset="0.445312"/><stop stop-opacity="1" stop-color="rgb(35.186768%, 66.581726%, 27.510071%)" offset="0.453125"/><stop stop-opacity="1" stop-color="rgb(35.020447%, 66.366577%, 27.464294%)" offset="0.460938"/><stop stop-opacity="1" stop-color="rgb(34.854126%, 66.151428%, 27.420044%)" offset="0.46875"/><stop stop-opacity="1" stop-color="rgb(34.687805%, 65.934753%, 27.374268%)" offset="0.476562"/><stop stop-opacity="1" stop-color="rgb(34.52301%, 65.719604%, 27.330017%)" offset="0.484375"/><stop stop-opacity="1" stop-color="rgb(34.356689%, 65.504456%, 27.284241%)" offset="0.492187"/><stop stop-opacity="1" stop-color="rgb(34.190369%, 65.287781%, 27.23999%)" offset="0.5"/><stop stop-opacity="1" stop-color="rgb(34.025574%, 65.072632%, 27.194214%)" offset="0.507812"/><stop stop-opacity="1" stop-color="rgb(33.859253%, 64.857483%, 27.149963%)" offset="0.515625"/><stop stop-opacity="1" stop-color="rgb(33.692932%, 64.640808%, 27.104187%)" offset="0.523438"/><stop stop-opacity="1" stop-color="rgb(33.526611%, 64.425659%, 27.059937%)" offset="0.53125"/><stop stop-opacity="1" stop-color="rgb(33.361816%, 64.21051%, 27.01416%)" offset="0.539062"/><stop stop-opacity="1" stop-color="rgb(33.195496%, 63.995361%, 26.96991%)" offset="0.546875"/><stop stop-opacity="1" stop-color="rgb(33.029175%, 63.778687%, 26.924133%)" offset="0.554688"/><stop stop-opacity="1" stop-color="rgb(32.86438%, 63.563538%, 26.879883%)" offset="0.5625"/><stop stop-opacity="1" stop-color="rgb(32.698059%, 63.348389%, 26.834106%)" offset="0.570312"/><stop stop-opacity="1" stop-color="rgb(32.531738%, 63.131714%, 26.789856%)" offset="0.578125"/><stop stop-opacity="1" stop-color="rgb(32.365417%, 62.916565%, 26.74408%)" offset="0.585938"/><stop stop-opacity="1" stop-color="rgb(32.189941%, 62.687683%, 26.696777%)" offset="0.59375"/><stop stop-opacity="1" stop-color="rgb(31.991577%, 62.428284%, 26.643372%)" offset="0.601562"/><stop stop-opacity="1" stop-color="rgb(31.782532%, 62.153625%, 26.586914%)" offset="0.609375"/><stop stop-opacity="1" stop-color="rgb(31.57196%, 61.880493%, 26.531982%)" offset="0.617188"/><stop stop-opacity="1" stop-color="rgb(31.362915%, 61.607361%, 26.475525%)" offset="0.625"/><stop stop-opacity="1" stop-color="rgb(31.15387%, 61.332703%, 26.420593%)" offset="0.632812"/><stop stop-opacity="1" stop-color="rgb(30.944824%, 61.05957%, 26.364136%)" offset="0.640625"/><stop stop-opacity="1" stop-color="rgb(30.734253%, 60.786438%, 26.309204%)" offset="0.648438"/><stop stop-opacity="1" stop-color="rgb(30.525208%, 60.51178%, 26.252747%)" offset="0.65625"/><stop stop-opacity="1" stop-color="rgb(30.316162%, 60.238647%, 26.196289%)" offset="0.664062"/><stop stop-opacity="1" stop-color="rgb(30.107117%, 59.965515%, 26.141357%)" offset="0.671875"/><stop stop-opacity="1" stop-color="rgb(29.898071%, 59.692383%, 26.0849%)" offset="0.679687"/><stop stop-opacity="1" stop-color="rgb(29.6875%, 59.417725%, 26.029968%)" offset="0.6875"/><stop stop-opacity="1" stop-color="rgb(29.478455%, 59.144592%, 25.973511%)" offset="0.695312"/><stop stop-opacity="1" stop-color="rgb(29.269409%, 58.87146%, 25.917053%)" offset="0.703125"/><stop stop-opacity="1" stop-color="rgb(29.060364%, 58.596802%, 25.862122%)" offset="0.710938"/><stop stop-opacity="1" stop-color="rgb(28.849792%, 58.323669%, 25.805664%)" offset="0.71875"/><stop stop-opacity="1" stop-color="rgb(28.640747%, 58.050537%, 25.750732%)" offset="0.726562"/><stop stop-opacity="1" stop-color="rgb(28.431702%, 57.775879%, 25.694275%)" offset="0.734375"/><stop stop-opacity="1" stop-color="rgb(28.222656%, 57.502747%, 25.637817%)" offset="0.742188"/><stop stop-opacity="1" stop-color="rgb(28.013611%, 57.229614%, 25.582886%)" offset="0.75"/><stop stop-opacity="1" stop-color="rgb(27.80304%, 56.956482%, 25.526428%)" offset="0.757812"/><stop stop-opacity="1" stop-color="rgb(27.593994%, 56.681824%, 25.471497%)" offset="0.765625"/><stop stop-opacity="1" stop-color="rgb(27.384949%, 56.408691%, 25.415039%)" offset="0.773438"/><stop stop-opacity="1" stop-color="rgb(27.175903%, 56.135559%, 25.358582%)" offset="0.78125"/><stop stop-opacity="1" stop-color="rgb(26.965332%, 55.860901%, 25.30365%)" offset="0.789062"/><stop stop-opacity="1" stop-color="rgb(26.756287%, 55.587769%, 25.247192%)" offset="0.796875"/><stop stop-opacity="1" stop-color="rgb(26.547241%, 55.314636%, 25.192261%)" offset="0.804688"/><stop stop-opacity="1" stop-color="rgb(26.338196%, 55.039978%, 25.135803%)" offset="0.8125"/><stop stop-opacity="1" stop-color="rgb(26.12915%, 54.766846%, 25.079346%)" offset="0.820313"/><stop stop-opacity="1" stop-color="rgb(25.918579%, 54.493713%, 25.024414%)" offset="0.828125"/><stop stop-opacity="1" stop-color="rgb(25.709534%, 54.220581%, 24.967957%)" offset="0.835938"/><stop stop-opacity="1" stop-color="rgb(25.500488%, 53.945923%, 24.913025%)" offset="0.84375"/><stop stop-opacity="1" stop-color="rgb(25.291443%, 53.672791%, 24.856567%)" offset="0.851562"/><stop stop-opacity="1" stop-color="rgb(25.082397%, 53.399658%, 24.801636%)" offset="0.859375"/><stop stop-opacity="1" stop-color="rgb(24.838257%, 53.08075%, 24.736023%)" offset="0.875"/><stop stop-opacity="1" stop-color="rgb(24.699402%, 52.89917%, 24.699402%)" offset="1"/></linearGradient></defs><path fill="#5fa04e" d="M 39.789062 15.757812 C 39.773438 15.757812 39.757812 15.761719 39.746094 15.769531 L 39.078125 16.160156 C 39.050781 16.175781 39.035156 16.203125 39.035156 16.234375 L 39.035156 17.015625 C 39.035156 17.046875 39.050781 17.074219 39.078125 17.089844 L 39.746094 17.480469 C 39.773438 17.5 39.800781 17.5 39.828125 17.480469 L 40.496094 17.089844 C 40.523438 17.074219 40.539062 17.046875 40.539062 17.015625 L 40.539062 16.234375 C 40.539062 16.203125 40.523438 16.175781 40.496094 16.160156 L 39.828125 15.769531 C 39.816406 15.761719 39.800781 15.757812 39.789062 15.757812 Z M 25.21875 20.429688 C 25.097656 20.429688 24.972656 20.457031 24.871094 20.515625 L 21.578125 22.433594 C 21.347656 22.570312 21.230469 22.773438 21.230469 23.039062 L 21.230469 26.867188 C 21.230469 27.117188 21.363281 27.351562 21.578125 27.476562 L 22.445312 27.972656 C 22.867188 28.179688 23.015625 28.179688 23.203125 28.179688 C 23.824219 28.179688 24.179688 27.796875 24.179688 27.140625 L 24.179688 23.367188 C 24.175781 23.300781 24.144531 23.265625 24.078125 23.265625 L 23.660156 23.265625 C 23.59375 23.265625 23.558594 23.300781 23.558594 23.367188 L 23.558594 27.144531 C 23.558594 27.433594 23.253906 27.726562 22.765625 27.476562 L 21.867188 26.953125 C 21.835938 26.9375 21.816406 26.894531 21.816406 26.859375 L 21.816406 23.03125 C 21.816406 23 21.835938 22.957031 21.867188 22.941406 L 25.160156 21.03125 C 25.183594 21.015625 25.226562 21.015625 25.257812 21.03125 L 28.550781 22.941406 C 28.585938 22.957031 28.601562 22.992188 28.601562 23.03125 L 28.601562 26.859375 C 28.601562 26.902344 28.585938 26.9375 28.550781 26.953125 L 25.257812 28.871094 C 25.234375 28.886719 25.191406 28.886719 25.160156 28.871094 L 24.316406 28.363281 C 24.292969 28.347656 24.261719 28.339844 24.234375 28.355469 C 24.003906 28.488281 23.964844 28.503906 23.742188 28.582031 C 23.691406 28.597656 23.609375 28.628906 23.773438 28.722656 L 24.871094 29.378906 C 24.980469 29.433594 25.09375 29.46875 25.21875 29.46875 C 25.339844 29.46875 25.464844 29.433594 25.5625 29.394531 L 28.855469 27.476562 C 29.089844 27.339844 29.203125 27.136719 29.203125 26.867188 L 29.203125 23.039062 C 29.203125 22.792969 29.070312 22.558594 28.855469 22.433594 L 25.5625 20.515625 C 25.457031 20.457031 25.339844 20.429688 25.21875 20.429688 Z M 30.359375 22.175781 C 30.183594 22.179688 30.035156 22.242188 29.910156 22.367188 C 29.785156 22.492188 29.722656 22.640625 29.722656 22.816406 C 29.722656 22.992188 29.785156 23.144531 29.910156 23.269531 C 30.035156 23.394531 30.183594 23.457031 30.359375 23.457031 C 30.707031 23.457031 30.996094 23.164062 30.996094 22.816406 C 30.992188 22.640625 30.929688 22.492188 30.808594 22.367188 C 30.683594 22.242188 30.535156 22.179688 30.359375 22.175781 Z M 30.351562 22.285156 C 30.5 22.285156 30.625 22.335938 30.730469 22.4375 C 30.835938 22.542969 30.886719 22.667969 30.886719 22.816406 C 30.886719 23.109375 30.648438 23.355469 30.351562 23.355469 C 30.0625 23.355469 29.824219 23.117188 29.824219 22.816406 C 29.824219 22.519531 30.070312 22.285156 30.351562 22.285156 Z M 30.121094 22.460938 L 30.121094 23.191406 L 30.261719 23.191406 L 30.261719 22.898438 L 30.382812 22.898438 C 30.433594 22.898438 30.449219 22.917969 30.457031 22.957031 C 30.457031 22.964844 30.484375 23.148438 30.484375 23.183594 L 30.632812 23.183594 C 30.613281 23.148438 30.605469 23.050781 30.597656 22.992188 C 30.589844 22.898438 30.582031 22.832031 30.484375 22.824219 C 30.53125 22.808594 30.617188 22.785156 30.617188 22.652344 C 30.617188 22.460938 30.449219 22.460938 30.367188 22.460938 Z M 30.242188 22.574219 L 30.359375 22.574219 C 30.402344 22.574219 30.464844 22.574219 30.464844 22.675781 C 30.464844 22.707031 30.449219 22.773438 30.359375 22.773438 L 30.242188 22.773438 Z M 26.117188 23.148438 C 25.175781 23.148438 24.617188 23.546875 24.617188 24.21875 C 24.617188 24.941406 25.175781 25.140625 26.078125 25.234375 C 27.15625 25.339844 27.238281 25.5 27.238281 25.714844 C 27.238281 26.089844 26.941406 26.246094 26.25 26.246094 C 25.375 26.246094 25.183594 26.03125 25.117188 25.589844 C 25.117188 25.539062 25.078125 25.507812 25.027344 25.507812 L 24.597656 25.507812 C 24.53125 25.507812 24.5 25.542969 24.5 25.605469 C 24.5 26.171875 24.796875 26.835938 26.242188 26.835938 C 27.28125 26.835938 27.882812 26.421875 27.882812 25.691406 C 27.882812 24.976562 27.40625 24.785156 26.390625 24.652344 C 25.367188 24.519531 25.257812 24.445312 25.257812 24.203125 C 25.257812 24.003906 25.351562 23.738281 26.109375 23.738281 C 26.785156 23.738281 27.042969 23.886719 27.140625 24.34375 C 27.152344 24.394531 27.183594 24.417969 27.230469 24.417969 L 27.667969 24.417969 C 27.695312 24.417969 27.71875 24.402344 27.734375 24.386719 C 27.75 24.363281 27.757812 24.339844 27.757812 24.3125 C 27.695312 23.515625 27.175781 23.148438 26.117188 23.148438 Z M 26.117188 23.148438 " fill-opacity="1" fill-rule="nonzero"/><g clip-path="url(#55065241ec)"><path fill="#333333" d="M 31.734375 7.035156 C 31.699219 7.03125 31.664062 7.042969 31.632812 7.058594 C 31.5625 7.097656 31.527344 7.160156 31.527344 7.242188 L 31.527344 12.640625 C 31.527344 12.6875 31.5 12.738281 31.453125 12.773438 C 31.402344 12.796875 31.351562 12.796875 31.304688 12.773438 L 30.429688 12.265625 C 30.289062 12.183594 30.148438 12.183594 30.007812 12.265625 L 26.507812 14.300781 C 26.367188 14.378906 26.296875 14.5 26.292969 14.664062 L 26.292969 18.726562 C 26.292969 18.875 26.378906 19.015625 26.507812 19.089844 L 30.007812 21.125 C 30.148438 21.207031 30.289062 21.207031 30.429688 21.125 L 33.929688 19.089844 C 34.058594 19.015625 34.144531 18.875 34.144531 18.726562 L 34.144531 8.601562 C 34.144531 8.445312 34.058594 8.304688 33.929688 8.230469 L 31.839844 7.058594 C 31.808594 7.042969 31.773438 7.035156 31.734375 7.035156 Z M 11.09375 12.101562 C 11.027344 12.101562 10.960938 12.125 10.902344 12.15625 L 7.402344 14.183594 C 7.257812 14.265625 7.1875 14.390625 7.1875 14.558594 L 7.199219 20.003906 C 7.199219 20.078125 7.238281 20.152344 7.304688 20.1875 C 7.375 20.234375 7.441406 20.234375 7.511719 20.1875 L 9.589844 18.992188 C 9.722656 18.917969 9.804688 18.777344 9.804688 18.625 L 9.804688 16.078125 C 9.804688 15.925781 9.886719 15.785156 10.019531 15.710938 L 10.902344 15.195312 C 10.96875 15.15625 11.042969 15.136719 11.117188 15.136719 C 11.191406 15.136719 11.265625 15.15625 11.324219 15.195312 L 12.207031 15.710938 C 12.339844 15.785156 12.421875 15.925781 12.421875 16.078125 L 12.421875 18.625 C 12.421875 18.777344 12.503906 18.917969 12.636719 18.992188 L 14.699219 20.1875 C 14.769531 20.234375 14.84375 20.234375 14.914062 20.1875 C 14.984375 20.148438 15.023438 20.085938 15.019531 20.003906 L 15.019531 14.558594 C 15.019531 14.40625 14.9375 14.265625 14.804688 14.191406 L 11.316406 12.15625 C 11.257812 12.125 11.191406 12.105469 11.125 12.097656 Z M 39.800781 12.160156 C 39.726562 12.160156 39.65625 12.179688 39.589844 12.214844 L 36.089844 14.25 C 35.957031 14.324219 35.875 14.464844 35.875 14.617188 L 35.875 18.675781 C 35.875 18.824219 35.957031 18.96875 36.089844 19.042969 L 39.5625 21.035156 C 39.703125 21.113281 39.839844 21.113281 39.976562 21.035156 L 42.082031 19.855469 C 42.152344 19.816406 42.1875 19.753906 42.1875 19.671875 C 42.1875 19.589844 42.152344 19.53125 42.082031 19.488281 L 38.566406 17.457031 C 38.496094 17.414062 38.460938 17.351562 38.460938 17.273438 L 38.460938 16 C 38.457031 15.917969 38.496094 15.859375 38.566406 15.820312 L 39.664062 15.1875 C 39.734375 15.144531 39.808594 15.144531 39.878906 15.1875 L 40.976562 15.820312 C 41.046875 15.859375 41.082031 15.921875 41.082031 16 L 41.082031 17 C 41.082031 17.074219 41.125 17.148438 41.191406 17.179688 C 41.261719 17.226562 41.332031 17.226562 41.40625 17.179688 L 43.484375 15.960938 C 43.625 15.878906 43.695312 15.757812 43.691406 15.59375 L 43.691406 14.605469 C 43.691406 14.457031 43.609375 14.316406 43.484375 14.242188 L 40.011719 12.214844 C 39.945312 12.179688 39.875 12.160156 39.800781 12.160156 Z M 30.21875 15.191406 C 30.238281 15.191406 30.257812 15.195312 30.273438 15.203125 L 31.46875 15.902344 C 31.5 15.917969 31.519531 15.960938 31.519531 15.992188 L 31.519531 17.386719 C 31.519531 17.429688 31.5 17.464844 31.46875 17.480469 L 30.273438 18.179688 C 30.238281 18.195312 30.199219 18.195312 30.164062 18.179688 L 28.96875 17.480469 C 28.933594 17.464844 28.917969 17.421875 28.917969 17.386719 L 28.917969 15.992188 C 28.917969 15.953125 28.9375 15.917969 28.96875 15.902344 L 30.164062 15.203125 C 30.183594 15.195312 30.199219 15.191406 30.21875 15.191406 Z M 30.21875 15.191406 " fill-opacity="1" fill-rule="nonzero"/></g><g clip-path="url(#fe5900734c)"><g clip-path="url(#a7246fb165)"><path fill="url(#8fb8f5d1fa)" d="M 16.769531 12.152344 L 16.769531 21.125 L 24.554688 21.125 L 24.554688 12.152344 Z M 16.769531 12.152344 " fill-rule="nonzero"/></g></g><g clip-path="url(#eab3976988)"><g clip-path="url(#cae7f1a862)"><path fill="url(#21d457a14b)" d="M 16.84375 12.191406 L 16.84375 21.117188 L 24.445312 21.117188 L 24.445312 12.191406 Z M 16.84375 12.191406 " fill-rule="nonzero"/></g></g><g clip-path="url(#9e54e7923b)"><g clip-path="url(#7a2e91dab1)"><path fill="url(#3b0ec9af68)" d="M 16.976562 12.164062 L 16.976562 21.101562 L 24.5625 21.101562 L 24.5625 12.164062 Z M 16.976562 12.164062 " fill-rule="nonzero"/></g></g></svg>